<svg width="30" height="39" viewBox="0 0 30 39" fill="none" xmlns="http://www.w3.org/2000/svg">
<path d="M29.4464 36.7273C29.4464 37.1209 29.3762 37.4554 29.2357 37.7308C29.1152 38.0063 28.9446 38.2326 28.7238 38.4097C28.5231 38.5868 28.2923 38.7147 28.0313 38.7934C27.7704 38.8721 27.5094 38.9115 27.2485 38.9115H25.5925C25.0706 38.9115 24.609 38.8623 24.2075 38.7639C23.8261 38.6458 23.4548 38.4491 23.0935 38.1736C22.7522 37.8784 22.401 37.4849 22.0397 36.993C21.6984 36.501 21.3171 35.8714 20.8955 35.104L8.61113 13.3806C7.9688 12.259 7.31645 11.0882 6.65405 9.86826C6.01173 8.62861 5.40955 7.42832 4.84752 6.26738H4.7873C4.82745 7.68412 4.85756 9.13038 4.87763 10.6061C4.8977 12.0819 4.90774 13.5479 4.90774 15.004V38.0555C4.90774 38.1933 4.8676 38.331 4.7873 38.4687C4.70701 38.5868 4.56651 38.6852 4.36578 38.7639C4.18513 38.8229 3.93422 38.8721 3.61306 38.9115C3.31197 38.9705 2.92056 39 2.43882 39C1.95707 39 1.55562 38.9705 1.23446 38.9115C0.933374 38.8721 0.692503 38.8229 0.51185 38.7639C0.331197 38.6852 0.200726 38.5868 0.120435 38.4687C0.0401451 38.331 0 38.1933 0 38.0555V2.81407C0 2.02699 0.220798 1.4662 0.662394 1.13169C1.10399 0.797182 1.58573 0.629928 2.10762 0.629928H4.57654C5.15865 0.629928 5.64039 0.679121 6.02177 0.777505C6.42322 0.87589 6.77449 1.04314 7.07558 1.27927C7.39674 1.49571 7.69783 1.81055 7.97884 2.22376C8.27993 2.6173 8.60109 3.11906 8.94232 3.72905L18.3965 20.4938C18.9786 21.517 19.5406 22.5206 20.0826 23.5044C20.6246 24.4686 21.1464 25.4229 21.6483 26.3674C22.1501 27.3119 22.6418 28.2465 23.1236 29.1714C23.6254 30.0765 24.1172 30.9915 24.5989 31.9163H24.629C24.5889 30.3618 24.5588 28.7483 24.5387 27.0758C24.5387 25.3836 24.5387 23.7602 24.5387 22.2057V1.48588C24.5387 1.34814 24.5788 1.22024 24.6591 1.10218C24.7394 0.984114 24.8699 0.885729 25.0506 0.807021C25.2513 0.708636 25.5022 0.639767 25.8033 0.600413C26.1244 0.561059 26.5359 0.541382 27.0377 0.541382C27.4793 0.541382 27.8607 0.561059 28.1819 0.600413C28.503 0.639767 28.7539 0.708636 28.9346 0.807021C29.1152 0.885729 29.2457 0.984114 29.326 1.10218C29.4063 1.22024 29.4464 1.34814 29.4464 1.48588V36.7273Z" fill="#F2994A"/>
</svg>
