<svg width="20" height="20" viewBox="0 0 20 20" fill="none" xmlns="http://www.w3.org/2000/svg">
<g clip-path="url(#clip0_9_413)">
<path d="M0.949956 7.74582L1.09162 7.95666C0.808289 7.94832 0.511623 7.92082 0.454956 7.79916C0.454956 7.79332 0.456623 7.78749 0.458289 7.78166C0.616623 7.73999 0.752456 7.73749 0.949956 7.74582ZM2.45496 8.38749L2.52329 8.59582L2.36329 8.60249L2.40162 8.38916C2.41943 8.38916 2.43723 8.38915 2.45496 8.38749ZM2.99996 9.90832C2.85829 10.0383 2.74912 10.125 2.66496 10.3225C2.54829 10.2267 2.48746 10.0367 2.44996 9.82416C2.40829 9.59249 2.39496 9.33499 2.36329 9.14249L2.37329 9.04416L2.53746 9.03249L2.95579 9.82416L2.99996 9.90749V9.90832ZM2.78829 7.95666C2.80907 7.81434 2.83046 7.67212 2.85246 7.52999L2.90662 7.52666C2.86662 7.66999 2.82662 7.81332 2.78829 7.95666ZM2.67412 6.02166L3.42412 6.22499C3.4229 6.23609 3.42179 6.2472 3.42079 6.25832C3.07162 6.51666 2.74912 6.62999 2.57579 7.09666L2.64162 6.05832L2.67412 6.02249V6.02166ZM3.37412 4.94666C3.32579 5.42999 3.39412 5.64332 3.47829 5.94332C3.61162 6.03832 3.66496 6.09582 3.62162 6.23666C3.39662 6.12499 3.15829 6.00832 2.81329 6.02666C2.80488 6.017 2.79654 6.00728 2.78829 5.99749C2.88496 5.61666 3.07329 5.38249 3.21912 5.08082L3.37496 4.94582L3.37412 4.94666ZM4.45246 4.30332L4.48496 4.30082C4.38162 4.65749 4.33996 5.47999 4.15912 5.80666C3.73162 5.60416 3.73996 4.72666 4.21829 4.37999L4.45246 4.30332ZM4.05412 6.94499L4.41412 7.33582C4.27246 7.77082 4.00496 8.09832 3.89162 8.60249L3.67912 8.58582C3.49746 8.07832 3.95162 7.25166 4.02912 6.88166L4.36246 6.91999C4.40412 7.02416 4.44412 7.12832 4.48496 7.23332L4.05412 6.94499ZM5.03912 4.29999C5.00246 4.72249 5.09579 4.94166 5.12079 5.26832C4.90912 5.37666 4.69662 5.48332 4.48496 5.59082C4.52427 5.15349 4.62905 4.72453 4.79579 4.31832L5.03912 4.29999ZM5.28579 3.65832L5.33329 3.65499L5.26162 3.86082L5.12079 3.86999L5.22912 3.74249L5.28579 3.65832ZM5.33329 5.62916L4.69662 6.02082C4.70996 5.78416 5.01162 5.46499 5.26412 5.37666L5.32246 5.40832L5.33329 5.62916ZM5.75829 4.14749C5.71912 4.36582 5.68079 4.58332 5.64329 4.80166L5.52412 4.87666L5.46079 4.94582C5.34579 4.78416 5.31662 4.38749 5.34162 4.08582L5.75829 4.14749ZM6.18162 3.65582C6.18162 3.66416 6.17996 3.67082 6.17912 3.67749L6.01662 3.83332C5.90829 3.87499 5.89496 3.87332 5.75829 3.86832C5.77579 3.79749 5.79579 3.72666 5.81496 3.65582H6.18162ZM6.60662 2.79582L6.41662 3.22499L5.75829 3.17749L5.76079 3.14249C6.03162 3.01749 6.26912 2.86916 6.60579 2.79499L6.60662 2.79582ZM6.26329 3.91249L6.33329 3.87082L6.39412 4.08582L6.18162 4.04416L6.26329 3.91166V3.91249ZM6.81829 4.54832C6.56579 4.64666 6.21662 4.61916 6.01412 4.73166C5.99957 4.64552 5.98485 4.5594 5.96996 4.47332L6.10162 4.30082C6.31579 4.38416 6.52996 4.46916 6.74329 4.55332L6.81829 4.54832ZM6.27579 4.93499L5.98746 4.94582C5.98079 4.91582 5.97579 4.88582 5.96996 4.85499C6.17246 4.77249 6.51246 4.76499 6.81829 4.73082L6.49579 4.90832L6.27579 4.93499ZM7.02996 4.93499C6.78746 4.99582 6.55496 5.20999 6.39579 5.37666C6.36496 5.18166 6.73912 4.83832 6.91829 4.73082C6.99746 4.80166 7.00579 4.79416 7.02996 4.93499ZM7.45496 2.36582L7.45162 2.39916L7.19662 2.55332L6.81829 2.58082L6.82162 2.54749L7.45496 2.36582ZM7.11162 3.01082L7.02996 2.88999C7.22162 2.72916 7.64412 2.81749 7.87912 2.84166L7.11162 3.01082ZM9.00996 2.37749C9.36412 2.40666 9.68829 2.48999 9.93495 2.64416L9.99996 2.63999L9.96079 2.69499L9.62162 2.79499C9.41746 2.76666 9.21329 2.73666 9.00996 2.70749L7.66662 2.51666L7.66996 2.48916C8.1085 2.385 8.56026 2.34763 9.00996 2.37832V2.37749ZM10.4208 2.26416L10.3458 2.36582C10.1424 2.35128 9.94804 2.27642 9.78745 2.15082L10.4241 2.23166L10.4208 2.26416ZM11.5508 3.05916L11.7266 2.99249L11.9091 3.14916C11.8841 3.32832 11.7116 3.47499 11.5791 3.64916L11.4775 3.65582C11.2008 3.19749 10.8516 2.69666 10.2391 2.51999L10.2125 2.46582L10.46 2.36582C10.8758 2.51082 11.2225 2.73082 11.6083 2.85749C11.6583 2.97832 11.6425 2.93749 11.55 3.05916H11.5508ZM12.0625 4.07832L12.0141 4.03082L11.9091 4.03832L12.0841 3.87166L12.0625 4.07832ZM12.25 6.45166C12.5366 6.69999 12.61 7.05999 12.4908 7.52666C12.3675 7.24999 12.245 6.97249 12.1208 6.69582C12.1625 6.63416 12.2016 6.57249 12.2425 6.51082C12.245 6.49082 12.2466 6.47082 12.25 6.45166ZM12.3333 4.51832L12.33 4.55832L12.1791 4.73082L12.1208 4.61666C12.2116 4.45416 12.1458 4.54166 12.265 4.52499L12.3333 4.51832ZM12.51 4.51582L13.1816 4.76499C13.1805 4.78728 13.1786 4.80952 13.1758 4.83166C13.1191 4.87082 13.0625 4.90832 13.0058 4.94582L12.3333 4.69749L12.3391 4.62999L12.51 4.51582ZM13.8183 5.37666L13.4458 5.12916L13.3941 5.02916C13.5558 4.92916 13.5325 4.93416 13.7033 4.96749C13.7408 5.10416 13.78 5.24082 13.8183 5.37666ZM14.03 5.29499L13.955 5.37666C13.865 5.32999 13.8491 5.27082 13.8183 5.16082L14.0125 5.24582L14.03 5.29499ZM13.8716 4.67916L13.8183 4.68332C13.8766 4.62749 13.935 4.57166 13.995 4.51666C13.9533 4.57082 13.9116 4.62499 13.8716 4.67916ZM14.8791 5.76082L14.775 5.80666C14.5856 5.70059 14.3964 5.5942 14.2075 5.48749C14.1481 5.40704 14.089 5.32649 14.03 5.24582C14.3241 5.02916 14.335 5.28082 14.6125 5.41832L14.8791 5.76082ZM15.0908 5.95082L14.8791 5.87332L15.0066 5.80666L15.0908 5.95082ZM14.8325 6.29749C14.9091 6.45166 14.9091 6.40832 15.0908 6.38499L14.765 6.66666L14.4541 6.07332L14.4583 6.03666C14.6875 5.98749 14.7608 6.06999 14.985 6.10332L15.0708 6.24166L14.8325 6.29749ZM14.8791 6.68332L15.3033 6.45166C15.2183 6.64332 15.1075 6.74166 14.9766 6.88166L14.8791 6.68332ZM15.7275 7.50416C15.6125 7.60332 15.5375 7.63499 15.32 7.65332L15.495 7.67249L15.4916 7.70332L14.8941 7.95666L14.8791 7.18999L15.2908 6.70249L15.3658 6.66666L15.7275 7.50416ZM15.515 6.32749C16.6866 6.00082 16.46 6.62249 15.9375 7.09666C15.7958 6.84082 15.655 6.58416 15.515 6.32749ZM16.5758 6.45166C16.1441 8.47999 16.0608 8.59082 14.5341 9.46249C14.5085 9.42152 14.4818 9.38122 14.4541 9.34166L14.5083 9.11499C15.5041 8.83166 16.07 8.30999 16.0108 7.12916L16.51 6.48749L16.5758 6.45166ZM16.6275 6.45166C16.6108 6.38166 16.5941 6.31166 16.5758 6.24166L16.7341 6.23666L16.6275 6.45166ZM14.03 8.42416L14.045 8.19999L14.0583 8.00832L14.205 7.95916C14.2125 7.95916 14.2191 7.95749 14.2258 7.95666C14.2675 8.21082 14.2258 8.39832 14.1425 8.60249C14.0708 8.55666 14.0566 8.53749 14.03 8.42416ZM13.1816 10.3058L13.185 10.2683L13.4633 9.60249L13.5216 9.46249L14.0116 9.49582C14.0191 9.53249 14.0241 9.56832 14.0266 9.60249C14.0483 9.85582 13.9608 10.0583 13.8708 10.3225L13.1816 10.3058ZM13.3941 11.1692L13.4 10.8358L13.4083 10.7525L13.7666 10.7792L13.8183 10.775C13.7358 10.9108 13.6541 11.0467 13.5733 11.1833L13.3941 11.1692ZM13.1841 9.77749L13.2058 9.76666L13.375 9.67916L13.3941 9.67749L13.3691 9.76666L13.27 10.1075L13.1816 9.80416L13.1841 9.77749ZM12.8533 10.8483L12.7575 10.7525C12.8508 10.8175 12.79 10.7542 12.8533 10.8483ZM12.3333 10.5925C12.4525 10.5175 12.5816 10.5408 12.7583 10.5425L12.7058 10.715C12.56 10.7733 12.5391 10.7517 12.375 10.7342L12.3333 10.5925ZM12.5933 11.3975L12.7575 11.7858C12.6308 11.8717 12.5033 11.9567 12.3766 12.0433C12.2633 11.8875 12.3866 11.4517 12.5933 11.3975ZM12.1741 10.0475L12.1208 10.0517L12.1908 9.89249L12.1741 10.0475ZM12.785 10.1075L12.7575 10.09L12.8508 9.89332L12.8816 9.89249L12.97 10.0992L12.785 10.1075ZM14.2541 7.31166L14.2425 7.23916C14.2983 7.17082 14.3341 7.12832 14.43 7.09749L14.455 7.22416C14.4133 7.25166 14.3716 7.27832 14.3308 7.30666L14.2541 7.31166ZM14.2425 7.83666C14.2041 7.88749 14.1358 7.91582 14.0875 7.95666L14.03 6.88166L14.2425 7.83666ZM13.8533 9.27832C13.9933 9.19999 14.0133 9.27249 14.03 9.46166H13.6058L13.6133 9.39499L13.8533 9.27832ZM13.645 8.68416L13.7408 8.60249L13.8183 8.74082L13.7825 8.81749L13.6058 8.79666L13.645 8.68416ZM13.6058 9.25416L13.385 9.46249L13.2408 9.43832L13.1825 9.44416C13.2158 9.37832 13.2508 9.31249 13.285 9.24749L13.6058 9.25416ZM12.8058 9.13166C12.7175 9.06999 12.7808 9.07832 12.7641 9.03166L12.8058 9.13166ZM13.4741 8.17166L12.7575 7.79999C12.7908 7.30832 12.8508 6.74332 12.8025 6.23666C13.355 6.43666 13.8508 7.33582 13.4741 8.17166ZM12.97 8.17166C13.1458 8.26499 13.1366 8.34999 13.3808 8.42499C13.4233 8.58416 13.3583 8.64749 13.2566 8.81666L12.9966 8.80666C12.9433 8.52332 13.0016 8.36082 12.97 8.17166ZM13.0183 9.56249C12.9291 9.50082 12.9933 9.50916 12.9766 9.46249L13.0183 9.56249ZM14.4541 7.49249L14.4566 7.45249L14.6483 7.31166C14.6816 7.53166 14.6691 7.89832 14.6191 8.17166C14.5058 8.08332 14.485 7.70999 14.4541 7.49249ZM14.4541 8.17166C14.4975 8.09999 14.5408 8.02832 14.5825 7.95666L14.5075 8.16832L14.4541 8.17166ZM15.6916 7.52916L15.7275 7.52666C15.7375 8.35082 15.2291 8.50082 14.5608 8.80999L14.4541 8.81749L14.8708 7.95416L15.6916 7.52916ZM14.4333 5.91916C14.44 5.94082 14.4475 5.96166 14.4533 5.98332L14.4008 6.02166L14.2416 5.80666L14.4333 5.91916ZM14.2416 6.27749L14.2475 6.23999C14.263 6.23875 14.2786 6.23764 14.2941 6.23666L14.4541 6.45166C14.3308 6.39332 14.3108 6.37916 14.2416 6.27749ZM14.4533 6.82749L14.1675 7.09666L13.5533 6.20499L12.7566 5.51332L12.9316 5.37666C13.3175 5.54332 13.9925 5.86082 14.1283 6.25749C14.1725 6.38666 14.02 6.49332 14.1233 6.60082C14.2466 6.72916 14.37 6.63749 14.4541 6.82666L14.4533 6.82749ZM12.6633 8.17166L12.7283 8.19749L12.7566 8.81749L12.6575 8.79416C12.5641 8.72499 12.4991 8.40499 12.5841 8.26582L12.6633 8.17166ZM12.1933 9.24999L12.2616 9.24749L12.3325 9.41582L12.2241 9.45749L12.12 9.46249C12.145 9.39166 12.17 9.32082 12.1933 9.24999ZM12 12.6883L11.9083 12.3742C12.0391 12.3367 12.1691 12.2992 12.3 12.26L12.3333 12.2583C12.3316 12.268 12.3302 12.2777 12.3291 12.2875L12 12.6883ZM11.6958 11.8283C11.735 11.7017 11.7625 11.6825 11.8333 11.6125L11.8916 11.6358L11.9083 11.6908L11.7775 11.8192L11.6958 11.8275V11.8283ZM11.7958 12.0433L11.6958 11.9333L11.9083 11.8283L11.8533 12.0392L11.7958 12.0433ZM11.5725 13.0183C11.5425 12.995 11.5141 12.9708 11.4841 12.9458L11.5491 12.9417L11.8766 12.6883L11.9083 12.9467L11.6575 13.1183L11.5725 13.0183ZM11.5891 15.4817C11.0783 15.5033 10.7725 15.3733 10.3558 15.3367L9.87829 14.3925L9.78662 14.2975C10.5883 14.2025 11.0925 13.8158 11.6866 13.5483C11.8966 13.7483 12.3725 14.7667 11.9533 15.2175C11.8533 15.3717 11.7416 15.3875 11.5891 15.4817ZM9.39579 14.4208L9.58745 14.4083C9.87662 14.6025 10.0733 14.95 10.2116 15.2692L9.36245 15.0233C9.42579 14.8083 9.45246 14.59 9.39579 14.4208ZM8.78579 13.6092L9.74246 13.3333L11.2458 13.48L11.2725 13.5558C10.825 13.7575 10.3158 13.9275 9.80245 14.1875C9.24662 14.2317 9.11246 14.0242 8.72746 13.8875L8.78579 13.6092ZM8.72662 14.6225L8.74579 14.4358L9.11162 14.4083C9.14162 14.5708 9.17329 14.6617 9.12829 14.8383L8.72662 14.6217V14.6225ZM8.30162 14.9592L8.44412 14.8808C8.61912 14.765 8.74996 14.9192 8.93829 14.98L8.86329 15.0533L8.30162 14.9592ZM8.71412 14.6233C8.66789 14.6028 8.62178 14.5819 8.57579 14.5608L8.51412 14.4083L8.72662 14.4217L8.71412 14.6233ZM8.08996 14.6233L8.30246 14.8058C8.30246 14.9183 8.29246 14.9058 8.26662 15.0533L8.08996 14.6233ZM7.53996 13.8175C7.73912 13.7567 8.00412 13.77 8.30246 13.7633L8.02496 13.9783L7.45412 13.9225L7.53996 13.8175ZM7.02996 3.03999C7.42412 2.66332 8.41246 2.77582 8.65996 3.01499L8.72662 3.00916C8.39746 3.31666 7.88745 3.35166 7.57412 3.65582C7.32829 3.49249 7.12496 3.38749 7.02996 3.03999ZM9.19662 3.65582L9.36329 3.84499C9.21496 3.85332 9.05912 3.86249 8.90329 3.87582C8.55246 3.90582 8.20579 3.95832 7.96329 4.08416L7.93162 4.08582C7.91409 4.05834 7.89659 4.03084 7.87912 4.00332C8.27719 3.79451 8.71665 3.67667 9.16579 3.65832L9.19662 3.65582ZM10.0233 2.58082C10.2975 2.85582 10.7066 3.01916 10.8483 3.44082C10.2733 3.17332 9.38829 3.17749 8.93995 2.75166C9.33495 2.83582 9.67162 2.80416 10.0233 2.58082ZM10.2125 4.08582L10.9991 4.19416L11.0608 4.18916L10.43 4.73082C10.33 4.53166 10.3066 4.26166 10.2125 4.08582ZM11.2233 5.00582L11.0608 4.98082L11.2725 4.94582L11.2225 5.00582H11.2233ZM11.0608 4.49166L11.255 4.30082L11.2725 4.51582L11.1316 4.48499L11.0608 4.49166ZM11.4458 11.6083L11.3525 11.6125L11.2725 11.5375L11.3341 11.4567L11.4841 11.3983L11.4458 11.6083ZM11.2766 12.0017C11.3016 11.9717 11.3283 11.9417 11.355 11.9117L11.3616 11.8283L11.485 12.0242L11.2725 12.0433L11.2766 12.0017ZM11.1925 12.6883L11.0608 12.53L11.485 12.4733L11.2825 12.6817L11.1925 12.6883ZM11.2725 13.3333L10.8483 13.2825L11.1483 13.1183L11.2725 13.3333ZM10.975 12.7267L11.0608 12.8083L10.7533 12.8867L10.4241 12.9033L10.8825 12.6883L10.975 12.7267ZM9.78829 3.44082C10.0358 3.44749 10.2975 3.50999 10.4241 3.65582C10.2533 3.63916 9.94579 3.66666 9.86829 3.53499L9.78829 3.44082ZM10.0033 4.30082C10.1241 4.40666 10.1666 4.53166 10.145 4.73082C9.95829 4.66666 10.0066 4.46249 10.0033 4.30082ZM10.2116 5.65666L10.2191 5.61999C10.6416 5.52832 10.7325 5.67499 10.54 5.80666C10.3733 5.78332 10.2975 5.72082 10.2116 5.65666ZM10.7558 11.1825L10.8483 11.2058C10.8471 11.2158 10.8459 11.2258 10.845 11.2358L10.6366 11.3975L10.7233 11.185L10.7558 11.1825ZM10.6391 5.93749L10.7975 5.80666L10.8483 6.02166L10.6366 5.97499L10.6383 5.93749H10.6391ZM11.2725 11.6875L10.76 11.8217L10.6366 11.8275C10.6366 11.8208 10.6383 11.8133 10.64 11.8067C10.8316 11.7683 10.955 11.705 11.0683 11.6125L11.2483 11.6458L11.2725 11.6875ZM10.9066 11.1825L10.8483 11.0633L10.9941 10.9675L11.0608 11.0033L10.9775 11.1767L10.9066 11.1825ZM9.57579 12.67L9.82829 12.4733L10.61 12.54L10.6366 12.5983L10.1083 12.9033C9.91245 12.8708 9.74329 12.7842 9.64162 12.665L9.57579 12.67ZM9.18329 12.6883L9.57496 12.9033L8.93912 12.7908C9.02079 12.7575 9.10162 12.7225 9.18329 12.6883ZM9.15162 13.1275C9.15071 13.1447 9.14988 13.1619 9.14912 13.1792L9.02829 13.2458L8.93912 13.2575L8.94245 13.2058C9.03495 13.0833 9.01912 13.1242 9.15079 13.1275H9.15162ZM8.15162 4.37499C8.13153 4.35342 8.11125 4.33203 8.09079 4.31082C8.30162 4.19582 8.63412 4.14082 8.96079 4.11499C9.22996 4.09249 9.49496 4.08999 9.68496 4.08582L9.78829 4.73082C9.51079 4.70082 9.24662 4.66416 8.96079 4.65166C8.71381 4.63942 8.46624 4.64834 8.22079 4.67832C8.19819 4.57711 8.17514 4.476 8.15162 4.37499ZM8.46329 13.0042L8.51496 13.0958L8.46495 13.2883L7.87912 13.3333C7.94162 13.1417 8.03495 13.0492 8.13579 12.9033L8.46329 13.0042ZM7.73996 12.2583C7.47329 12.2433 7.10829 12.0483 7.02996 11.8283L7.87912 12.0442L7.73996 12.2583ZM8.03829 12.2467L7.87912 12.2583L7.88412 12.2067L8.06079 12.0433C8.05246 12.1108 8.04579 12.1783 8.03829 12.2467ZM7.45496 4.38249L7.71329 4.30082L7.87912 4.50916L7.70412 4.51582L7.45496 4.38249ZM7.45162 13.6158C7.43746 13.6625 7.42496 13.71 7.41162 13.7575C7.39099 13.7586 7.37042 13.7605 7.34996 13.7633C7.31423 13.6916 7.2784 13.6199 7.24246 13.5483L7.45496 13.57L7.45162 13.6158ZM7.56912 12.6883L8.06412 12.7883L8.09079 12.855L7.70662 13.3333L7.24246 13.265L7.56912 12.6883ZM11.2725 5.94832L11.3683 5.80749L11.4033 5.80666L11.67 5.87332L11.6966 5.91166L11.3991 6.02166C11.357 5.99712 11.3147 5.97268 11.2725 5.94832ZM11.8466 5.25332L11.6966 5.16166C11.8491 5.21749 11.7616 5.15416 11.8466 5.25332ZM11.7983 6.23666L11.6966 6.14999L11.9091 6.02166L11.7983 6.23666ZM11.6966 7.74166L12.0266 7.82332C12.1158 7.85832 12.1133 7.86749 12.1208 7.95666C11.9791 7.90249 11.7425 7.86499 11.6966 7.74166ZM11.73 7.15582L11.775 7.09749L11.9091 7.31166L11.6966 7.26999L11.73 7.15582ZM7.43245 14.2317L7.45496 14.2883L7.16912 14.3975L7.02996 14.4083L7.03329 14.3792L7.13079 14.2267C7.26579 14.1642 7.26912 14.205 7.43245 14.2317ZM6.81829 3.43999C7.00329 3.57832 7.05162 3.74832 7.02246 4.30082C6.90079 4.14499 6.82662 3.81416 6.81829 3.44082V3.43999ZM6.93996 3.01082L6.92496 3.16666L6.81912 3.17416L6.94079 3.01082H6.93996ZM6.81829 3.22582C6.81246 3.27749 6.80829 3.32916 6.80162 3.38082L6.60579 3.34499L6.76746 3.22916L6.81746 3.22582H6.81829ZM6.81829 15.6992L6.92329 14.6042L7.66662 14.4083L6.88496 15.6592L6.81829 15.6992ZM6.87079 12.7558L6.98496 12.6883C7.08912 12.8117 6.99579 12.9892 6.89746 13.1183C6.81579 13.0417 6.80662 12.9933 6.82829 12.8192L6.87079 12.7558ZM6.18162 12.6508L6.42579 12.2583L6.81746 12.4883C6.68412 12.6983 6.54829 12.9083 6.41329 13.1183C6.29162 13.01 6.21662 12.8508 6.18162 12.6517V12.6508ZM6.18162 14.335L6.57329 13.9783L6.75746 13.995L6.81829 14.095C6.80162 14.2 6.78662 14.3042 6.77162 14.4083L6.18162 14.335ZM5.54579 14.0433L6.01246 13.7633L6.36746 13.8192L6.39412 13.8683L6.01996 14.1933C5.83329 14.1742 5.70912 14.1242 5.61162 14.0392L5.54496 14.0433H5.54579ZM5.48329 13.6275L5.65412 13.5483L5.72746 13.5642L5.75746 13.5992L5.26329 13.7633L5.12162 13.7133L5.48329 13.6275ZM4.90912 13.4258L5.03412 13.1233C5.26579 13.0933 5.32079 13.2075 5.49496 13.28L5.54496 13.3567L5.28579 13.5342L5.07496 13.5483L4.90912 13.4258ZM4.48412 14.3083L4.79329 13.7633C4.99829 13.7633 5.02329 13.78 5.10746 13.8883C5.14496 13.9517 5.11246 13.9175 5.03079 13.9317L5.01162 14.1192L5.33329 14.1692C5.26996 14.3267 5.25996 14.3058 5.16496 14.4058C4.84829 14.4225 4.70496 14.3625 4.48412 14.3083ZM4.12746 13.5483L4.66662 13.7108L4.69662 13.775L4.35079 14.1933L3.84829 14.0283L4.12746 13.5483ZM2.04996 12.9667L2.05662 12.9025L2.35746 13.1342L2.38329 13.1958C1.75746 13.6792 2.71496 15.2542 3.80412 14.2333L4.27246 14.4217C4.09246 14.7425 3.78329 14.8692 3.45746 15.0508C2.67829 15.1158 1.58829 13.8433 2.04996 12.9667ZM2.77662 13.1867L2.78829 13.3325C2.72996 13.2883 2.67162 13.2458 2.61496 13.2017L2.57579 13.1175L2.77662 13.1867ZM3.84829 14.1L3.46079 14.4C2.69746 14.48 2.38829 13.9517 2.36329 13.3025L2.51246 13.1225L2.57746 13.1175C2.96162 13.42 3.30162 13.8817 3.82329 14.0342L3.84829 14.1ZM3.10912 10.9667C3.03996 10.9167 3.03579 10.8917 3.00079 10.8067L3.14579 10.255L3.31496 10.1067L3.42412 10.2667L3.10912 10.9667ZM3.00079 11.1525L3.33496 10.3617L3.40329 10.3217C3.55746 10.5933 3.78079 10.7167 3.84829 11.0858L3.34496 11.6117C3.18844 11.4951 3.0687 11.336 2.99996 11.1533L3.00079 11.1525ZM3.63662 11.8108L4.06162 11.3967L4.27246 11.8275C4.06053 11.8211 3.84859 11.8155 3.63662 11.8108ZM4.69662 7.46499C4.49579 7.89416 4.22829 8.18582 4.06829 8.60166C3.99829 8.22416 4.41996 7.68166 4.55579 7.34832L4.62079 7.31082L4.69662 7.46499ZM4.69662 6.28166C5.01246 6.18416 5.22412 6.00582 5.44996 5.80582L5.54579 6.09249L5.27746 6.45082L4.69662 6.28166ZM5.75746 6.30416L5.64246 6.45082L5.54579 6.43416L5.54746 6.41082L5.74079 6.23582L5.75746 6.30416ZM5.59079 5.37749L5.62412 5.37582L5.75746 5.65666L5.70746 5.80582C5.51329 5.70416 5.52079 5.58332 5.59079 5.37749ZM5.55079 11.6117L5.74662 11.7525L5.54579 11.6642C5.54692 11.6466 5.54858 11.6291 5.55079 11.6117ZM5.54746 11.8275L5.75746 11.9183C5.7562 11.9266 5.75509 11.935 5.75412 11.9433L5.30412 12.2575C5.17496 12.1992 5.15912 12.0833 5.12079 11.9575L5.12496 11.9308L5.54746 11.8275ZM4.91996 11.3967L5.12162 11.4783L5.01329 11.5408L4.90912 11.5525L4.91996 11.3967ZM4.90912 7.09666C5.16412 7.16832 5.08329 7.11999 5.09412 7.31082C4.97746 7.24249 4.96912 7.21082 4.90912 7.09666ZM4.90912 10.9375L4.92662 10.7517C5.02579 10.8208 5.05996 10.8617 5.12162 10.9667C5.05081 10.9568 4.97998 10.9471 4.90912 10.9375ZM5.33412 8.25166C5.25412 8.35416 5.25746 8.32666 5.12162 8.38582L5.21412 8.17082L5.33412 8.25166ZM5.33412 7.38666L5.20079 7.52582C5.06746 7.45082 5.12996 7.48082 5.18996 7.34166L5.26912 7.31082L5.33412 7.38666ZM5.31662 7.02082L5.12162 6.88082C5.27162 6.93832 5.23662 6.90332 5.31662 7.02082ZM4.90912 10.9667L5.12162 11.1358C5.01329 11.1333 4.95496 11.11 4.90912 10.9667ZM5.54579 10.9583L5.45912 10.9667L5.38496 10.83L5.33329 10.7633L5.44829 10.7517C5.48079 10.8208 5.51246 10.89 5.54579 10.9583ZM5.42912 6.97666L5.33329 6.88166C5.42662 6.94666 5.36496 6.88332 5.42829 6.97749L5.42912 6.97666ZM5.44162 10.5183L5.33329 10.2933L5.37912 10.1083L5.40579 10.1067L5.54579 10.5367C5.51108 10.5305 5.47636 10.5244 5.44162 10.5183ZM4.88579 13.0208L4.90912 13.0492L4.83329 13.3333C4.74404 13.2963 4.66545 13.2376 4.60462 13.1625C4.5438 13.0874 4.50267 12.9983 4.48496 12.9033L4.88579 13.0217V13.0208ZM4.27246 13.3333L4.48496 13.5217C4.34912 13.4617 4.34079 13.4642 4.27246 13.3333ZM4.63912 11.4267L4.66412 11.6125L4.48496 11.3975L4.63912 11.4267ZM4.42912 12.4325L4.27246 12.0433C4.45829 12.1142 4.60329 12.3267 4.69746 12.4733L4.42912 12.4325ZM4.59579 8.60416L4.64829 8.60249L4.49329 8.81749C4.46829 8.76416 4.49912 8.71332 4.58496 8.65082L4.59579 8.60416ZM4.48496 10.4525L4.44246 10.5375L4.32079 10.4433C4.30466 10.4092 4.28855 10.375 4.27246 10.3408L4.43912 10.3225L4.48496 10.4525ZM2.99996 12.2583C3.42496 12.535 4.14746 12.7917 4.27246 13.3333C3.76857 13.0817 3.33224 12.7131 2.99996 12.2583ZM4.10246 12.05L4.27246 12.2583L3.84829 12.0433L4.10246 12.05ZM5.65579 12.6883L5.33329 12.3633L5.89746 11.8283L5.96996 12.4175L5.65579 12.6883ZM5.96996 13.0475L6.02579 12.9075L6.10079 12.9033L6.18162 13.1183L5.96996 13.0475ZM6.25579 12.2583L6.18162 12.0433L6.33579 12.0717L6.25579 12.2583ZM5.96996 5.01666L5.97162 4.99749C6.04162 4.98082 6.11162 4.96416 6.18162 4.94582L6.03496 5.16082L5.96996 5.01666ZM3.83079 9.46249L3.63662 9.03249C3.88579 9.08666 3.84496 9.26416 3.83079 9.46249ZM3.31162 9.67749C3.12996 9.55166 3.01412 9.30082 2.99996 9.03249C3.37246 9.11999 3.35162 9.26666 3.42496 9.60666L3.31162 9.67749ZM3.09246 8.55499C2.82162 8.29916 3.21579 7.27582 3.38912 7.03999C3.48079 6.92416 3.59579 6.92666 3.74746 6.88166L3.84829 6.90749C3.59329 7.35916 3.42162 7.97416 3.36079 8.60249L3.09246 8.55499ZM2.69662 12.0433L2.82579 12.2608L2.70996 12.5317L2.64329 12.6025C2.73829 12.6158 2.75996 12.5342 2.90162 12.4183C3.17662 12.8642 3.59662 13.2908 4.05996 13.5333L3.80746 13.9783L3.04079 13.485C2.95329 13.3225 3.07412 13.1358 2.93329 13.0367C2.80579 12.9467 2.64162 13.0767 2.51162 13.0375L2.15162 12.7075C2.25746 12.4708 2.35912 12.2392 2.56829 12.1183L2.69662 12.0433ZM1.96329 9.67166C1.99221 9.45719 2.03367 9.24461 2.08746 9.03499L2.11579 9.03249L2.22662 9.67166L2.28496 10.005C2.45162 10.47 2.61996 10.9342 2.78829 11.3975C2.38496 11.1775 2.13579 10.6683 2.17162 9.98332C2.07496 10.2042 2.15496 10.5517 2.18662 10.7467C1.93912 10.5367 1.90829 10.1192 1.96329 9.67166ZM1.59496 9.89249C1.55642 9.81113 1.53217 9.72374 1.52329 9.63416C1.51142 9.51355 1.51254 9.39202 1.52662 9.27166L1.56329 9.19499L1.72746 9.03249L1.63496 9.63332L1.59496 9.89166V9.89249ZM16.3633 12.0425L15.9391 11.8792L16.3508 11.8283L16.3633 12.0425ZM5.13829 15.5425L5.24912 15.4842L5.12079 15.6983L5.13746 15.5433L5.13829 15.5425ZM1.93912 8.17249L1.75829 8.15582C1.53329 8.08166 1.32246 7.81916 1.30329 7.52749C1.64746 7.55832 1.76412 7.72166 1.93412 7.92082C1.93579 8.00416 1.93829 8.08832 1.93912 8.17249ZM1.91412 8.15499C1.93912 7.69082 1.58496 7.40082 1.12496 7.41332C1.20329 6.76166 1.76996 6.42832 2.27496 6.20916L2.37246 6.20166C2.28829 7.01999 2.35246 7.72499 2.04662 8.43332C1.82079 8.95499 1.01996 8.94499 1.06329 9.74999L1.06912 9.81666C1.18329 10.8867 2.34662 11.1042 2.50746 12.045C0.782456 12.9225 2.88496 16.61 4.24912 14.4442C4.49412 14.4792 4.71162 14.59 5.01579 14.4833C5.15746 14.405 5.18496 14.3417 5.23996 14.1783L5.72746 14.4308L5.75246 14.4925C5.30579 14.8392 4.99079 15.315 4.51079 15.64L4.55662 15.5083L4.43162 15.4858L4.36246 15.5233L4.29996 15.815C4.57412 16.095 5.40496 15.0825 5.64829 14.8842C5.51079 15.365 5.17079 15.6125 4.98162 16.0525L5.03996 16.1125C5.39829 15.8558 5.83746 15.1292 5.90412 14.5767L6.44079 14.6658C5.76829 15.575 4.04079 17.575 3.13246 18.1092C3.27079 17.675 3.49079 17.3433 3.60246 16.9867L3.53746 16.9917C3.51808 16.9716 3.49864 16.9516 3.47912 16.9317C3.25829 17.3667 2.89412 17.6725 2.82912 18.2592C2.86796 18.3173 2.9171 18.3679 2.97412 18.4083C4.05412 18.2283 5.85746 15.5142 6.71912 14.7725C6.48579 17.1142 5.23079 17.4792 4.14246 18.8975C5.13162 18.4042 5.73162 17.1458 6.57746 16.4475C6.48412 17.425 6.25162 19.6108 5.66662 20L5.76329 19.9925C6.41996 19.5842 6.45829 17.905 6.67746 17.0467L6.77079 16.1442L7.70829 14.8275L7.77662 14.79C7.88162 15.1192 8.35662 15.4767 8.87079 15.3808L9.23996 15.2258L10.1666 15.5725C10.2883 16.9058 10.2416 17.6533 9.39746 18.6683C10.26 18.2275 10.5766 16.5292 10.2891 15.6275C12.295 15.86 12.2141 15.1833 11.8341 13.7225L12.1866 13.7283C12.1216 13.6308 11.9458 13.7033 11.8116 13.6283C11.7508 13.5892 11.7625 13.5967 11.725 13.5383C12.2016 13.0008 13.35 13.535 13.1083 14.4275C13.4383 13.6875 12.7091 13.0292 12.0066 13.2942C12.3066 12.9383 12.67 12.6458 12.86 12.175L12.9283 12.1383L14.5783 13.8717L14.6758 13.8642L14.7508 13.7625C14.2258 13.1408 13.7016 12.5183 13.1783 11.8958L13.3466 11.8192C13.3838 11.7808 13.4295 11.7516 13.48 11.7341C13.5306 11.7166 13.5845 11.7112 13.6375 11.7183C13.6096 11.7045 13.5819 11.6906 13.5541 11.6767C14.3966 11.7608 15.4733 12.4633 16.3525 12.2367C16.4333 12.0958 16.4375 12.02 16.3883 11.8825C17.325 11.9058 19.01 11.5925 19.5466 11.1375C18.105 11.44 16.4816 11.5425 15.1583 11.3658L13.9858 11.2283L13.92 11.2333L14.2358 10.6667C15.2025 10.6483 17.7375 10.6242 18.25 10.0175L18.1366 9.86582L17.695 9.80249C17.664 9.85181 17.6468 9.90847 17.645 9.96666L17.995 10.0042C17.235 10.1958 15.1183 10.6 14.4275 10.3642C14.355 10.2758 14.4083 9.96916 14.4116 9.74832C14.4129 9.70881 14.4112 9.66926 14.4066 9.62999C15.4 9.33332 16.1375 8.66499 16.44 7.65666C16.6125 7.07916 16.4983 6.32082 16.8716 5.96082C17.11 5.98166 17.1583 6.08249 17.3333 6.15082C17.2408 6.02249 17.1083 5.95082 16.9425 5.89249L16.6316 6.10666C16.3475 6.21666 16.05 5.92916 15.5675 6.15332C15.1758 5.81832 14.955 5.28916 14.4258 5.08666L14.3716 4.99499L15.0133 4.37082C14.8033 4.54666 14.5891 4.75416 14.375 4.96249L13.945 4.76999L13.92 4.70749C14.41 4.36082 14.845 4.23249 15.4025 4.34249C15.4283 4.39416 15.4558 4.44499 15.4825 4.49666C15.4566 4.54082 15.4333 4.55332 15.4108 4.56582L15.2233 4.51582C15.3041 4.56332 15.3883 4.57832 15.4725 4.59332L15.5433 4.52416L15.5541 4.42749C15.4325 4.31916 15.395 4.24082 15.1558 4.23249L15.27 4.06416C14.9966 4.25249 14.4416 4.30249 14.17 4.46582L14.7983 3.97082L14.8733 3.86999L13.7108 4.56332C13.4625 4.54666 13.1983 4.42999 13.0641 4.29082C13.0427 4.29247 13.0213 4.29414 13 4.29582L14.38 3.36249L14.3575 3.26832C13.8341 3.57332 13.31 3.87832 12.7875 4.18416L12.2858 4.06082L12.3325 3.60999L15.93 0.78499L15.9941 0.77999L15.9433 0.655824C15.81 0.59249 15.2625 1.03666 15.0558 1.16916C14.2591 1.67999 13.555 2.31582 12.7716 2.77749C13.095 2.36666 13.6866 1.95749 13.785 1.35916L13.6266 1.33916L13.38 1.54916L13.6483 1.43249C13.475 1.95999 12.69 2.90166 12.2466 3.19999L12.195 3.07582C12.4833 2.59082 12.7675 1.93832 12.6341 1.31582L12.3925 1.17416L12.1333 1.19332C12.2991 1.25916 12.4116 1.27499 12.5333 1.35582C12.6108 1.95916 12.3141 2.36749 12.1541 2.85582L12.0858 2.89249C11.9791 2.69499 11.9858 2.59999 11.7666 2.56416L11.7475 2.43749L11.8975 2.23416L12.0008 2.16249C12.0358 2.22916 12.0375 2.20499 12.0483 2.31916C12.079 2.27009 12.096 2.21369 12.0975 2.15582L11.975 2.10082L11.6508 2.44416C11.38 2.26332 11.0816 2.07332 10.7008 2.00249C10.9166 1.55499 11.5725 0.835824 11.2341 0.268324C10.8208 -0.421676 9.40995 0.373324 8.89329 0.920824C8.83334 0.981872 8.78127 1.05018 8.73829 1.12416C8.78943 1.08348 8.8411 1.04348 8.89329 1.00416C9.40329 0.624157 10.7608 -0.285843 11.055 0.441657C11.3633 0.84749 10.7725 1.62832 10.6116 1.94582C10.0616 1.88999 9.48662 1.83749 8.89496 1.84916C8.2722 1.85459 7.65384 1.95404 7.06079 2.14416C6.76079 2.24332 5.48079 3.00999 5.43162 2.99999L4.84829 2.43499L3.62829 1.82249L3.62162 1.88666L3.54996 1.95582L5.11329 3.27916L4.87496 3.42499C4.23162 2.93749 3.78829 2.64166 2.83079 2.39249L2.66912 2.40499C3.22829 2.78999 3.79162 3.14249 4.35412 3.49582L4.46662 3.64749C4.06496 3.81666 3.89496 4.16832 3.55579 4.38666C3.02579 4.13332 2.53496 3.90332 1.89246 3.70916L1.84746 3.84082L3.05079 4.61582L3.11579 4.61082L2.90829 4.75416C2.81246 5.07666 2.62496 5.45082 2.46829 5.90582C1.86829 6.39416 1.09079 6.36499 0.969956 7.35999C0.778289 7.41249 0.643289 7.42916 0.468289 7.55749L0.454956 7.68666C0.564956 7.83999 1.53912 8.25249 1.77162 8.29249L1.91496 8.15416L1.91412 8.15499ZM9.03079 1.27499L9.11996 1.29166L9.00079 1.27666C8.97995 1.27666 8.95912 1.27832 8.93912 1.27916C9.03329 1.10416 9.30995 1.06082 9.57579 1.07999L9.55746 1.20666L9.03746 1.23249L9.03079 1.27499ZM9.40245 1.50582L9.65246 1.42416C9.76079 1.24416 9.82245 1.05332 9.76745 0.879157C9.50995 0.828324 9.36162 0.890824 9.12079 0.99249C9.07696 1.06375 9.03335 1.13514 8.98996 1.20666L8.93995 1.28999C8.95536 1.30788 8.97207 1.32459 8.98996 1.33999C9.07162 1.40666 9.16995 1.42999 9.35079 1.41499C9.40079 1.49999 9.34246 1.46249 9.25329 1.48582L9.40329 1.50582H9.40245ZM15.5716 3.44166L15.3033 3.49166L15.4683 3.47999L15.6575 3.56166L15.3708 4.08666C15.5183 3.91249 15.665 3.78916 15.7275 3.52499L15.5716 3.44166ZM14.03 11.8292C13.9633 11.71 13.8908 11.6317 13.8183 11.6133C13.8825 11.6742 13.9566 11.7458 14.03 11.8292ZM13.1816 14.4092L12.97 14.5325L13.1325 14.5175L13.1825 14.4092H13.1816ZM14.03 11.8292C14.2458 12.0725 14.4075 12.5392 14.3608 12.9042C14.6058 12.375 14.3266 12.045 14.03 11.8292Z" fill="black"/>
</g>
<defs>
<clipPath id="clip0_9_413">
<rect width="20" height="20" fill="white"/>
</clipPath>
</defs>
</svg>
