<svg width="20" height="20" viewBox="0 0 20 20" fill="none" xmlns="http://www.w3.org/2000/svg">
<g clip-path="url(#clip0_9_417)">
<path fill-rule="evenodd" clip-rule="evenodd" d="M19.5417 4.95669C19.68 4.50169 19.5417 4.16669 18.8792 4.16669H16.6917C16.135 4.16669 15.8783 4.45585 15.7392 4.77502C15.7392 4.77502 14.6267 7.43835 13.0508 9.16835C12.5408 9.67002 12.3092 9.82919 12.0308 9.82919C11.8917 9.82919 11.6825 9.67002 11.6825 9.21419V4.95669C11.6825 4.41002 11.5292 4.16669 11.0658 4.16669H7.62583C7.27833 4.16669 7.06917 4.42002 7.06917 4.66085C7.06917 5.17835 7.8575 5.29835 7.93833 6.75502V9.92002C7.93833 10.6142 7.81083 10.74 7.5325 10.74C6.79083 10.74 4.98667 8.06419 3.91583 5.00252C3.70833 4.40669 3.49833 4.16669 2.93917 4.16669H0.75C0.125 4.16669 0 4.45585 0 4.77502C0 5.34335 0.741667 8.16669 3.45417 11.9009C5.2625 14.4509 7.80833 15.8334 10.1275 15.8334C11.5183 15.8334 11.69 15.5267 11.69 14.9975V13.07C11.69 12.4559 11.8217 12.3334 12.2625 12.3334C12.5875 12.3334 13.1433 12.4934 14.4417 13.7225C15.925 15.18 16.1692 15.8334 17.0042 15.8334H19.1917C19.8167 15.8334 20.13 15.5267 19.95 14.92C19.7517 14.3167 19.0433 13.4409 18.1042 12.4017C17.5942 11.81 16.8292 11.1725 16.5967 10.8534C16.2725 10.4442 16.365 10.2617 16.5967 9.89752C16.5967 9.89752 19.2633 6.20919 19.5408 4.95669H19.5417Z" fill="white"/>
</g>
<defs>
<clipPath id="clip0_9_417">
<rect width="20" height="20" fill="white"/>
</clipPath>
</defs>
</svg>
